<svg xmlns="http://www.w3.org/2000/svg" xmlns:xlink="http://www.w3.org/1999/xlink" version="1.1" x="0px" y="0px" width="100px" height="100px" viewBox="0 0 100 100" enable-background="new 0 0 100 100" xml:space="preserve">
<g id="Captions">
	<rect x="-192" width="185" height="99"/>
	<rect y="-36" width="100" height="30"/>
	<text transform="matrix(1 0 0 1 66 -19.5)" fill="#000000" font-family="'Helvetica'" font-size="2.4">http://thenounproject.com</text>
	<text transform="matrix(1 0 0 1 7.166 -24.5)"><tspan x="0" y="0" fill="#000000" font-family="'Helvetica-Bold'" font-size="6.1578">The Noun Project</tspan><tspan x="1.12" y="4.8" fill="#000000" font-family="'Helvetica-Bold'" font-size="4">Icon Template</tspan></text>
	<text transform="matrix(1 0 0 1 -178.5 10.5)" fill="#000000" font-family="'Helvetica-Bold'" font-size="6.1578">Reminders</text>
	<line fill="#000000" stroke="#FFFFFF" stroke-miterlimit="10" x1="8" y1="-14.5" x2="18" y2="-14.5"/>
	<line fill="#000000" stroke="#FFFFFF" stroke-miterlimit="10" x1="-179" y1="16.5" x2="-162" y2="16.5"/>
	<g>
		<g>
			<g>
				<rect x="-170.802" y="31.318" fill="#000000" width="8.721" height="8.642"/>
				<path fill="#000000" d="M-164.455,42.312h4.747v-4.703h-4.747V42.312z M-159.266,42.749h-5.63V37.17h5.63V42.749      L-159.266,42.749z M-166.221,44.062h8.279v-8.203h-8.279V44.062L-166.221,44.062z M-157.5,44.5h-9.163v-9.079h9.163V44.5      L-157.5,44.5z"/>
				<polygon fill="#000000" points="-166.149,44.133 -166.292,43.991 -158.013,35.787 -157.871,35.929     "/>
			</g>
		</g>
	</g>
	<rect x="-179" y="58" fill="none" width="35" height="32.5"/>
	<text transform="matrix(1 0 0 1 -179 60.1299)"><tspan x="0" y="0" fill="#000000" font-family="'Helvetica-Bold'" font-size="3">Strokes</tspan><tspan x="0" y="5" fill="#000000" font-family="'Helvetica'" font-size="2.4">Try to keep strokes at 4px</tspan><tspan x="0" y="10" fill="#000000" font-family="'Helvetica'" font-size="2.4">Minimum stroke weight is 2px</tspan><tspan x="0" y="14.5" fill="#000000" font-family="'Helvetica'" font-size="2.4">For thicker strokes use even </tspan><tspan x="0" y="17.5" fill="#000000" font-family="'Helvetica'" font-size="2.4">numbers: 6px, 8px etc.</tspan><tspan x="0" y="22" fill="#000000" font-family="'Helvetica-Bold'" font-size="2.4">Remember to expand strokes </tspan><tspan x="0" y="25" fill="#000000" font-family="'Helvetica-Bold'" font-size="2.4">before saving as an SVG </tspan></text>
	<rect x="-136.5" y="58" fill="none" width="35" height="32.5"/>
	<text transform="matrix(1 0 0 1 -136.5 60.1299)"><tspan x="0" y="0" fill="#000000" font-family="'Helvetica-Bold'" font-size="3">Size</tspan><tspan x="0" y="5" fill="#000000" font-family="'Helvetica'" font-size="2.4">Cannot be wider or taller than </tspan><tspan x="0" y="8.5" fill="#000000" font-family="'Helvetica'" font-size="2.4">100px (artboard size)</tspan><tspan x="0" y="13.5" fill="#000000" font-family="'Helvetica'" font-size="2.4">Scale your icon to fill as much of </tspan><tspan x="0" y="16.5" fill="#000000" font-family="'Helvetica'" font-size="2.4">the artboard as possible</tspan></text>
	<rect x="-94" y="58" fill="none" width="35" height="32.5"/>
	<text transform="matrix(1 0 0 1 -94 60.1299)"><tspan x="0" y="0" fill="#000000" font-family="'Helvetica-Bold'" font-size="3">Ungroup</tspan><tspan x="0" y="5" fill="#000000" font-family="'Helvetica'" font-size="2.4">If your design has more than one </tspan><tspan x="0" y="8" fill="#000000" font-family="'Helvetica'" font-size="2.4">shape, make sure to ungroup</tspan></text>
	<rect x="-50" y="58" fill="none" width="35" height="32.5"/>
	<text transform="matrix(1 0 0 1 -50 60.1299)"><tspan x="0" y="0" fill="#000000" font-family="'Helvetica-Bold'" font-size="3">Save as</tspan><tspan x="0" y="5" fill="#000000" font-family="'Helvetica'" font-size="2.4">Save as .SVG and make sure &#8220;Use </tspan><tspan x="0" y="8" fill="#000000" font-family="'Helvetica'" font-size="2.4">Artboards&#8221; is checked</tspan></text>
	<text transform="matrix(1.0074 0 0 1 -125.542 30.5933)" fill="#000000" font-family="'Helvetica'" font-size="2.5731">100px</text>
	<text transform="matrix(1.0074 0 0 1 -41 39)" fill="#000000" font-family="'Helvetica-Bold'" font-size="5.1462">.SVG</text>
	<rect x="-126.514" y="34.815" fill="#000000" width="10.261" height="10.185"/>
	<rect x="-126.477" y="31.766" fill="#000000" width="0.522" height="2.337"/>
	<rect x="-116.813" y="31.766" fill="#000000" width="0.523" height="2.337"/>
	<rect x="-127" y="32.337" fill="#000000" width="11.233" height="0.572"/>
	<g>
		<rect x="-83.805" y="33.844" fill="#000000" width="10.305" height="10.156"/>
		<rect x="-76.809" y="28.707" fill="#000000" width="3.308" height="3.261"/>
	</g>
	<rect x="-178.5" y="22.5" fill="#000000" stroke="#FFFFFF" stroke-miterlimit="10" width="30" height="30"/>
	<rect x="-136.5" y="22.5" fill="#000000" stroke="#FFFFFF" stroke-miterlimit="10" width="30" height="30"/>
	<rect x="-93.5" y="22.5" fill="#000000" stroke="#FFFFFF" stroke-miterlimit="10" width="30" height="30"/>
	<rect x="-49.5" y="22.5" fill="#000000" stroke="#FFFFFF" stroke-miterlimit="10" width="30" height="30"/>
</g>
<g id="Your_Icon">
	<g>
		<polygon points="77.002,37.264 77.003,37.261 77.003,37.261   "/>
		<path d="M98.661,51.406c0.05,0.037,0.4,0.298,0.757,0.551v-2.198c-9.819-7.488-14.027-24.563-14.264-25.556V24.15l-2.213,0.001    l-0.002-0.001c0,0,0,0,0,0.001h-0.01v0.017C72.533,43.835,61.523,53.816,50.25,53.816c-0.151,0-0.303-0.002-0.454-0.007    c-18.988-0.447-32.778-29.284-32.951-29.65v-0.008h-2.22l-0.003-0.001c0,0,0,0,0,0.001h-0.006v0.026    c-0.181,0.767-4.32,17.857-14.108,25.463v2.213c0.225-0.155,0.567-0.418,0.647-0.477c1.436-1.06,2.753-2.298,3.961-3.651v6.364    H0.361v3.297h12.66v9.95h-1.779c-0.721,0-1.306,0.585-1.306,1.306v1.306h1.306h8.978h1.306v-1.306    c0-0.721-0.585-1.306-1.306-1.306h-1.779v-9.95h62.893v9.95h-1.779c-0.721,0-1.306,0.585-1.306,1.306v1.306h1.306h8.978h1.306    v-1.306c0-0.721-0.585-1.306-1.306-1.306h-1.779v-9.95h12.661V54.09H94.81v-6.196C95.988,49.193,97.27,50.384,98.661,51.406z     M73.182,42.317c1.313-1.567,2.615-3.271,3.908-5.113c-0.002,0.002-0.004,0.006-0.006,0.009V54.09h-3.899V42.315    c0.002-0.002,0.003-0.005,0.006-0.007C73.188,42.312,73.185,42.314,73.182,42.317z M72.121,43.553V54.09h-3.9v-6.544    C69.53,46.348,70.83,45.017,72.121,43.553z M32.771,48.283c1.292,1.08,2.592,2.042,3.899,2.888l0,0v2.919h-3.899V48.283    L32.771,48.283z M37.733,51.832L37.733,51.832c1.543,0.92,3.092,1.673,4.642,2.258h-4.642V51.832z M62.194,52.092v1.998h-4.099    C59.47,53.563,60.836,52.899,62.194,52.092L62.194,52.092L62.194,52.092z M63.258,51.431c1.308-0.849,2.607-1.834,3.899-2.942    v5.602h-3.899V51.431z M31.707,47.369v6.721h-3.9V43.516c0.001,0.001,0.003,0.001,0.003,0.003l0,0    C29.096,44.921,30.396,46.204,31.707,47.369z M26.743,42.322V54.09h-3.899V37.417c0.621,0.853,1.272,1.715,1.958,2.578    C25.445,40.802,26.093,41.576,26.743,42.322z M6.182,46.468c0-0.001,0.001-0.003,0.002-0.003l0,0    c1.032-1.278,1.975-2.632,2.833-4.018c0,0,0,0,0-0.001V54.09H6.182V46.468z M10.081,54.09V40.643    c2.04-3.636,3.526-7.333,4.536-10.263v3.462h-0.709v9.1h-0.887V54.09H10.081z M17.555,42.941v-9.1h-0.709v-5.875    c1.113,2.023,2.788,4.869,4.934,7.958V54.09h-3.339V42.941H17.555z M78.147,54.09V35.664c0.002-0.003,0.005-0.008,0.007-0.011    c0,0.001-0.001,0.001-0.002,0.002c1.608-2.394,3.201-4.999,4.777-7.821v6.008h-0.71v9.1h-0.886V54.09H78.147z M85.867,42.941v-9.1    h-0.711l-0.001-3.423c1.04,3,2.577,6.792,4.689,10.498l0,0c0.002,0,0.001,0.002,0.002,0.003V54.09h-3.094V42.941H85.867z     M93.745,54.09H90.91V42.696c0.861,1.368,1.807,2.701,2.835,3.959V54.09z"/>
	</g>
</g>
</svg>