<?xml version="1.0" encoding="utf-8"?>
<!-- Generator: Adobe Illustrator 18.1.1, SVG Export Plug-In . SVG Version: 6.00 Build 0)  -->
<svg version="1.1" id="Layer_1" xmlns="http://www.w3.org/2000/svg" xmlns:xlink="http://www.w3.org/1999/xlink" x="0px" y="0px"
	 viewBox="14 -14 100 100" enable-background="new 14 -14 100 100" xml:space="preserve">
<g id="Your_Icon">
	<rect x="73" y="61" width="28" height="10"/>
	<rect x="58" y="67" width="54" height="4"/>
	<path d="M82.6,16.8c-1.5-2.9-3.4-5.3-5.3-7.3l-12.5,6.9c0.5,2.7,1.6,5.6,3.1,8.4c1.3,2.4,2.8,4.6,4.4,6.3L85.5,24
		C84.9,21.7,83.9,19.2,82.6,16.8z"/>
	<path d="M97.3,30.2l-2.8-5.2c-1-1.8-3.2-2.5-5-1.5l-19.8,11c-1.8,1-2.5,3.3-1.5,5.1l2.8,5.2c1,1.8,3.2,2.5,5,1.5l19.8-11
		C97.7,34.3,98.3,32,97.3,30.2z"/>
	<path d="M16.7,50.8c0.8,1.5,2.5,2.2,3.6,1.6l47.4-24.4c1.1-0.6,1.4-2.3,0.5-3.7l-0.1-0.1c-0.8-1.5-2.5-2.2-3.6-1.6L17.2,47
		c-1.1,0.6-1.4,2.3-0.5,3.7L16.7,50.8z"/>
	<path d="M52.1,10.6c-1-1.8-0.3-4.1,1.5-5.1l19.8-11c1.8-1,4-0.3,5,1.5l2.8,5.2c1,1.8,0.3,4.1-1.5,5.1l-19.8,11c-1.8,1-4,0.3-5-1.5
		L52.1,10.6z"/>
</g>
</svg>
