<svg xmlns="http://www.w3.org/2000/svg" xmlns:xlink="http://www.w3.org/1999/xlink" version="1.1" id="Layer_1" x="0px" y="0px" width="100px" height="44.896px" viewBox="4.865 19.9484 100.0 60.6096" enable-background="new -0.135 24.438 100 44.896" xml:space="preserve">
<path d="M51.354,40.089c-0.155,0.066-0.315,0.136-0.493,0.212l0.406-0.179C51.294,40.108,51.328,40.099,51.354,40.089z"/>
<path d="M52.917,68.559l-0.034,0.037l-0.033,0.043c-0.857,1.085-2.428,1.278-3.521,0.418l-0.504-0.403l-0.55-0.439  c0.056-0.104,0.099-0.212,0.136-0.324l1.664-4.821c0.075,0.065,0.15,0.126,0.225,0.184c0.183,0.146,0.355,0.282,0.518,0.415  c0.091,0.074,0.176,0.14,0.261,0.206c0.114,0.095,0.227,0.184,0.33,0.269c0.066,0.052,0.126,0.099,0.186,0.151  c0.159,0.121,0.3,0.237,0.421,0.336c0.308,0.242,0.487,0.389,0.487,0.389C53.593,65.885,53.776,67.466,52.917,68.559z"/>
<path d="M73.206,59.914L73.14,60c-0.859,1.087-2.442,1.274-3.535,0.414c0,0-0.155-0.12-0.438-0.343  c-0.707-0.554-2.199-1.734-4.012-3.163c-0.245-0.195-0.494-0.392-0.744-0.59c-0.68-0.528-1.385-1.085-2.105-1.651  c-0.087-0.068-0.178-0.146-0.267-0.208c-0.405-0.324-0.815-0.646-1.224-0.969c-4.059-3.195-8.13-6.402-8.366-6.596  c-0.753-0.603-1.548,0.41-0.79,1.012c0.411,0.325,4.528,3.574,8.207,6.471c0.104,0.081,0.208,0.158,0.314,0.239  c0.226,0.179,0.455,0.357,0.68,0.537c0.277,0.221,0.556,0.438,0.822,0.646c0.123,0.094,0.243,0.192,0.365,0.285  c0.97,0.764,1.854,1.455,2.549,2.011c0.152,0.117,0.287,0.226,0.411,0.32c0.175,0.136,0.329,0.263,0.471,0.371  c0.073,0.059,0.146,0.113,0.21,0.167c0.005,0,0.013,0.007,0.013,0.007c0.004,0.009,0.004,0.009,0.008,0.012  c0.329,0.254,0.507,0.396,0.507,0.396c1.093,0.86,1.275,2.444,0.418,3.535l-0.025,0.021l-0.014,0.024l-0.029,0.031  c-0.86,1.092-2.441,1.277-3.53,0.415c0,0-0.137-0.108-0.39-0.306c-0.037-0.033-0.081-0.065-0.127-0.098  c-0.011-0.012-0.023-0.021-0.033-0.028c-0.057-0.048-0.122-0.095-0.188-0.146c-0.028-0.029-0.065-0.053-0.099-0.076  c-0.037-0.03-0.075-0.062-0.111-0.089c-0.087-0.069-0.176-0.143-0.274-0.217c-0.015-0.016-0.033-0.027-0.053-0.043  c-0.258-0.2-0.55-0.431-0.87-0.683c-0.074-0.061-0.148-0.116-0.223-0.175c-0.148-0.121-0.31-0.243-0.471-0.371  c-0.163-0.132-0.331-0.265-0.511-0.4c-0.142-0.117-0.291-0.231-0.443-0.349c-0.984-0.776-2.08-1.637-3.188-2.51  c-3.507-2.753-7.188-5.662-7.575-5.969c-0.758-0.598-1.563,0.409-0.8,1.013c0.447,0.353,4.296,3.407,7.397,5.866  c0.282,0.227,0.553,0.443,0.817,0.648c0.237,0.186,0.462,0.364,0.68,0.538c0.211,0.169,0.418,0.333,0.612,0.489  c0.324,0.254,0.621,0.491,0.89,0.702c0.104,0.08,0.198,0.155,0.287,0.227c0.057,0.046,0.108,0.085,0.153,0.126  c0.097,0.075,0.183,0.146,0.266,0.206c0.148,0.118,0.282,0.221,0.39,0.311c0.254,0.199,0.396,0.312,0.396,0.312  c1.087,0.858,1.275,2.443,0.414,3.531l-0.033,0.043l-0.004,0.009l-0.027,0.037c-0.86,1.088-2.443,1.267-3.535,0.404  c0,0-0.143-0.107-0.391-0.31c-0.033-0.025-0.075-0.058-0.111-0.085c-0.012-0.01-0.021-0.02-0.029-0.021  c-0.093-0.073-0.199-0.153-0.31-0.248c-0.58-0.458-1.416-1.116-2.373-1.874c-0.221-0.178-0.456-0.364-0.697-0.55  c-0.383-0.312-0.785-0.632-1.191-0.955c-0.281-0.226-0.565-0.452-0.851-0.678c0.046-0.613-0.071-1.224-0.348-1.789  c-0.416-0.849-1.136-1.482-2.03-1.789c-0.367-0.125-0.752-0.194-1.144-0.194c-0.358,0-0.711,0.059-1.041,0.158  c-0.584-0.46-1.026-0.809-1.248-0.986c-0.038-0.105-0.081-0.209-0.131-0.312c-0.415-0.849-1.135-1.483-2.029-1.79  c-0.372-0.126-0.752-0.187-1.145-0.187c-1.135,0-2.176,0.54-2.829,1.416c-0.278-1.122-1.103-2.092-2.279-2.494  c-0.371-0.126-0.758-0.189-1.144-0.189c-1.187,0-2.265,0.599-2.91,1.545c-0.286-1.112-1.106-2.062-2.269-2.462  c-0.373-0.126-0.758-0.193-1.149-0.193c-1.506,0-2.849,0.959-3.338,2.386l-0.023,0.077c-0.225-0.077-0.447-0.171-0.608-0.26  l-7.998-4.6c-0.306-0.174-0.419-0.574-0.245-0.884l8.554-15.41c0.17-0.311,0.583-0.457,0.914-0.33l4.053,1.567  c0.33,0.127,0.876,0.146,1.214,0.039l9.652-3.103c0.338-0.109,0.899-0.141,1.247-0.075l0.754,0.146  c0.348,0.065,0.4,0.292,0.113,0.504l-1.041,0.777c-0.009,0.009-0.019,0.014-0.027,0.028c-2.22,1.644-5.255,3.87-6.648,4.783  c-1.398,0.914-1.969,2.341-1.53,3.813c0.555,1.86,2.538,3.207,4.708,3.207c0.72,0,1.431-0.146,2.118-0.433  c2.052-0.856,5.07-2.133,7.579-3.196c0.033-0.004,0.062-0.014,0.089-0.028l0.951-0.411c0.607-0.259,1.167-0.493,1.646-0.702  l0.406-0.178c0.027-0.014,0.062-0.023,0.089-0.033c0.006,0,0.006,0,0.01,0c0.317-0.094,0.743-0.02,0.991,0.179l2.772,2.193  c0.276,0.217,0.732,0.579,1.012,0.796l8.492,6.695l7.649,6.025l0.509,0.4C73.884,57.239,74.069,58.826,73.206,59.914z"/>
<path d="M52.463,63.304c-0.388-0.306-0.79-0.626-1.196-0.95l0.004-0.006C51.678,62.674,52.079,62.993,52.463,63.304z"/>
<path d="M60.18,54.613c-0.105-0.079-0.211-0.158-0.316-0.239l0.007-0.006C59.974,54.448,60.074,54.529,60.18,54.613z"/>
<path d="M44.767,32.63c0.283-0.212,0.792-0.476,1.127-0.585l9.391-3.051c0.337-0.11,0.874-0.073,1.193,0.082l12.038,5.832  c0.317,0.154,0.851,0.175,1.18,0.047l4.053-1.569c0.33-0.128,0.741,0.021,0.913,0.331l8.555,15.41  c0.174,0.31,0.078,0.733-0.206,0.942l-7.903,5.756c-0.287,0.206-0.749,0.199-1.026-0.021L52.742,38.835  c-0.277-0.22-0.768-0.287-1.092-0.149c0,0-7.37,3.136-11.512,4.867c-3.695,1.546-7.209-2.544-4.196-4.519  C38.325,37.472,44.767,32.63,44.767,32.63z"/>
<g>
	<g>
		<path d="M47.74,58.982c1.355,0.463,2.074,1.936,1.61,3.288l-1.829,5.313c-0.464,1.352-1.935,2.072-3.287,1.607l0,0    c-1.353-0.464-2.072-1.936-1.608-3.285l1.825-5.317C44.914,59.237,46.386,58.517,47.74,58.982L47.74,58.982z"/>
	</g>
	<g>
		<path d="M42.146,55.864c1.354,0.464,2.073,1.937,1.61,3.287l-1.828,5.316c-0.464,1.352-1.936,2.071-3.288,1.606l0,0    c-1.352-0.463-2.072-1.936-1.608-3.289l1.825-5.313C39.321,56.118,40.792,55.398,42.146,55.864L42.146,55.864z"/>
	</g>
	<g>
		<path d="M35.893,54.597c1.35,0.463,2.071,1.937,1.607,3.287l-1.104,3.213c-0.464,1.353-1.937,2.071-3.288,1.608l0,0    c-1.353-0.464-2.071-1.937-1.608-3.287l1.103-3.214C33.068,54.853,34.539,54.133,35.893,54.597L35.893,54.597z"/>
	</g>
	<g>
		<path d="M29.568,53.488c1.352,0.466,2.071,1.938,1.607,3.289l-0.398,1.163c-0.465,1.352-1.937,2.073-3.289,1.608l0,0    c-1.352-0.465-2.071-1.938-1.607-3.29l0.398-1.162C26.743,53.744,28.216,53.025,29.568,53.488L29.568,53.488z"/>
	</g>
</g>
<path d="M99.744,41.724c0.262,0.482,0.083,1.092-0.4,1.354l-12.128,6.606c-0.481,0.263-1.092,0.083-1.354-0.398L76.729,32.52  c-0.264-0.483-0.084-1.091,0.398-1.354l12.13-6.606c0.482-0.263,1.091-0.083,1.352,0.398L99.744,41.724z"/>
<path d="M-0.015,41.724c-0.262,0.482-0.083,1.092,0.398,1.354l12.128,6.606c0.482,0.263,1.09,0.083,1.353-0.398L23,32.52  c0.263-0.483,0.083-1.091-0.398-1.354l-12.129-6.607c-0.482-0.263-1.092-0.083-1.354,0.398L-0.015,41.724z"/>
<text x="-0.135" y="77.1908" font-size="2.2448" font-weight="bold" font-family="Helvetica Neue, Helvetica, Arial-Unicode, Arial, Sans-serif" fill="#000000">Created by DEADTYPE</text><text x="-0.135" y="79.4356" font-size="2.2448" font-weight="bold" font-family="Helvetica Neue, Helvetica, Arial-Unicode, Arial, Sans-serif" fill="#000000">from the Noun Project</text></svg>